<?xml version="1.0" encoding="UTF-8" standalone="no"?>
<!-- Created with Inkscape (http://www.inkscape.org/) -->

<svg
   xmlns:dc="http://purl.org/dc/elements/1.1/"
   xmlns:cc="http://creativecommons.org/ns#"
   xmlns:rdf="http://www.w3.org/1999/02/22-rdf-syntax-ns#"
   xmlns:svg="http://www.w3.org/2000/svg"
   xmlns="http://www.w3.org/2000/svg"
   xmlns:sodipodi="http://sodipodi.sourceforge.net/DTD/sodipodi-0.dtd"
   xmlns:inkscape="http://www.inkscape.org/namespaces/inkscape"
   width="44.697914mm"
   height="37.676666mm"
   viewBox="0 0 158.37844 133.5"
   id="svg3553"
   version="1.1"
   inkscape:version="0.91 r13725"
   sodipodi:docname="elasticsearch-logo.svg">
  <defs
     id="defs3555" />
  <sodipodi:namedview
     id="base"
     pagecolor="#ffffff"
     bordercolor="#666666"
     borderopacity="1.0"
     inkscape:pageopacity="0.0"
     inkscape:pageshadow="2"
     inkscape:zoom="0.7"
     inkscape:cx="79.189221"
     inkscape:cy="104.78228"
     inkscape:document-units="px"
     inkscape:current-layer="layer1"
     showgrid="false"
     inkscape:window-width="1916"
     inkscape:window-height="1037"
     inkscape:window-x="0"
     inkscape:window-y="20"
     inkscape:window-maximized="0"
     fit-margin-top="0"
     fit-margin-left="0"
     fit-margin-right="0"
     fit-margin-bottom="0" />
  <metadata
     id="metadata3558">
    <rdf:RDF>
      <cc:Work
         rdf:about="">
        <dc:format>image/svg+xml</dc:format>
        <dc:type
           rdf:resource="http://purl.org/dc/dcmitype/StillImage" />
        <dc:title></dc:title>
      </cc:Work>
    </rdf:RDF>
  </metadata>
  <g
     inkscape:label="Layer 1"
     inkscape:groupmode="layer"
     id="layer1"
     transform="translate(-295.81078,-465.6122)">
    <path
       style="fill:#73b63e;fill-opacity:1"
       d="m 355.8557,596.92409 c -0.90817,-1.20346 -1.65122,-2.90508 -1.65122,-3.78138 0,-0.87631 -0.675,-1.8523 -1.5,-2.16888 -1.62696,-0.62433 -2.08955,-3.36163 -0.56809,-3.36163 0.51254,0 1.89319,1.35 3.06809,3 l 2.13619,3 30.76661,0 30.7666,0 2.84934,-3.19789 c 2.02376,-2.27133 2.98434,-2.79286 3.3153,-1.8 0.25628,0.76884 -0.0253,1.56165 -0.62577,1.7618 -0.60046,0.20015 -2.00354,2.24765 -3.11797,4.55 l -2.02624,4.18609 -30.88081,0 c -30.59599,0 -30.89605,-0.0202 -32.53203,-2.18811 z m 18.38655,-13.8574 c 0.70546,-0.85003 1.88016,-1.31622 2.61045,-1.03599 0.73028,0.28024 1.22069,0.10417 1.08978,-0.39126 -0.1309,-0.49543 1.26596,-2.17061 3.10413,-3.72261 2.61445,-2.20743 3.36494,-3.62638 3.44688,-6.51695 0.14113,-4.97896 -2.0448,-7.12804 -10.65532,-10.47567 -5.54545,-2.15599 -8.55306,-4.16925 -13.50888,-9.04274 -5.46406,-5.37328 -6.89324,-6.26837 -10,-6.26295 -2.97659,0.005 -3.92944,0.54168 -5.3283,3 -1.73736,3.05321 -5.95019,4.17207 -7.32616,1.9457 -0.39412,-0.63769 -2.32844,-0.79593 -4.94078,-0.40418 -2.7051,0.40565 -4.54362,0.23845 -4.97035,-0.45203 -0.37249,-0.60269 -2.84001,-1.09581 -5.48338,-1.09581 -3.34526,0 -5.60558,-0.62885 -7.43628,-2.06888 -1.62148,-1.27546 -3.36885,-1.83443 -4.55634,-1.45753 -3.10508,0.98551 -6.08322,-3.03538 -6.08322,-8.21318 0,-3.99793 -0.27823,-4.47871 -3.32961,-5.75366 -5.97425,-2.4962 -6.75431,-5.4304 -1.85072,-6.96147 1.27583,-0.39836 3.81954,-3.06895 5.65271,-5.93465 2.64663,-4.13736 4.1053,-5.40603 7.08306,-6.1605 4.97471,-1.26042 8.95484,-6.33661 11.36167,-14.49047 3.77406,-12.78574 4.19772,-13.4968 7.83289,-13.1463 2.04111,0.1968 3.25,0.85694 3.25,1.77475 0,0.80377 1.04636,1.85922 2.32524,2.34544 1.27888,0.48623 3.08925,2.0501 4.02305,3.47525 0.9338,1.42516 2.40998,2.5912 3.28041,2.5912 0.87042,0 2.91957,1.125 4.55367,2.5 1.68634,1.41896 4.23515,2.5 5.89435,2.5 2.72844,0 2.92328,-0.25844 2.92328,-3.87755 0,-2.22677 0.63859,-4.40755 1.5,-5.12245 0.825,-0.68469 1.5,-2.35156 1.5,-3.70415 0,-1.35259 1.61706,-4.43266 3.59346,-6.84461 3.18866,-3.89133 3.52006,-4.81987 2.94179,-8.24256 -0.64199,-3.79997 -0.59342,-3.87468 3.27256,-5.03295 2.15833,-0.64665 5.10952,-1.17573 6.55821,-1.17573 3.21306,0 6.62263,3.19689 6.66578,6.25 0.0175,1.2375 0.66159,3.08124 1.43132,4.0972 0.76973,1.01596 1.16166,2.46704 0.87095,3.22462 -0.29071,0.75757 0.4152,2.90445 1.56868,4.77083 1.15349,1.86638 2.09725,3.9178 2.09725,4.55872 0,2.48806 7.11217,8.3081 10.54217,8.62688 4.11352,0.38231 5.45783,1.12882 5.45783,3.03077 0,0.79254 0.9,1.44098 2,1.44098 2.79127,0 2.52134,1.03093 -1.5,5.72897 -4.03269,4.71129 -4.33638,6.5718 -1.40759,8.62321 1.9627,1.37473 1.9782,1.49503 0.25,1.9407 -1.01332,0.26131 0.0797,0.52732 2.42903,0.59112 3.47337,0.0943 4.47487,0.5625 5.36027,2.50573 0.59886,1.31435 2.13994,2.86865 3.42464,3.45399 1.45996,0.6652 2.78875,2.57609 3.5438,5.09622 1.42003,4.73964 4.96594,7.51514 8.19543,6.41486 1.21243,-0.41308 2.57537,-0.65074 3.02875,-0.52815 0.45338,0.1226 0.57084,-0.18726 0.26101,-0.68857 -1.11867,-1.81004 2.34545,-3.37219 6.1537,-2.77502 2.88502,0.45241 3.29515,0.35913 1.76096,-0.4005 -1.59993,-0.79218 -1.3999,-0.86143 1,-0.34618 1.65,0.35425 5.15355,0.69799 7.78566,0.76386 4.87211,0.12192 6.66815,1.40946 6.69903,4.80237 0.008,0.92544 -0.9229,1.98039 -2.0696,2.34434 -1.14669,0.36395 -2.51763,1.90304 -3.04651,3.42021 -2.24704,6.44584 -13.18083,10.01121 -19.95628,6.50749 -2.24779,-1.16238 -4.47654,-1.37699 -8.99323,-0.86598 -5.37341,0.60793 -6.25735,0.44216 -8.40604,-1.57643 -1.90807,-1.79253 -3.09706,-2.12526 -5.78956,-1.62014 -2.65317,0.49774 -3.78382,0.19869 -5.21091,-1.37822 -1.05993,-1.17121 -3.11758,-2.02719 -4.91755,-2.04568 -1.70225,-0.0175 -3.96852,-0.69249 -5.03614,-1.5 -3.29986,-2.49589 -6.16218,-1.80572 -8.42637,2.0318 -1.13578,1.925 -2.75523,3.5 -3.59878,3.5 -2.01996,0 -1.93571,-0.6735 0.46628,-3.72713 2.48217,-3.15557 2.74988,-10.04788 0.42493,-10.94005 -2.78573,-1.06898 -9.21883,1.569 -11.4428,4.69227 -1.5338,2.15403 -2.93599,2.97491 -5.08161,2.97491 -3.30604,0 -4.82133,2.30222 -3.21584,4.88592 1.61362,2.59678 6.8097,5.72306 15.08994,9.07904 14.7,5.9579 15.38356,6.31251 14.01197,7.26892 -0.86704,0.60458 -0.61257,0.70969 0.78037,0.32233 3.4875,-0.96983 7.01474,4.06163 12.7545,18.19379 l 2.53843,6.25 -16.05239,0 c -14.36549,0 -15.9176,-0.16241 -14.76973,-1.54551 z m 4.46223,-22.45449 c -1.1,-0.47269 -2.675,-0.85943 -3.5,-0.85943 -0.94548,0 -0.76064,0.31771 0.5,0.85943 1.1,0.47269 2.675,0.85943 3.5,0.85943 0.94548,0 0.76064,-0.31771 -0.5,-0.85943 z m -9.5,-9 c -0.825,-0.53316 -1.95,-0.96937 -2.5,-0.96937 -0.55,0 -0.325,0.43621 0.5,0.96937 0.825,0.53316 1.95,0.96937 2.5,0.96937 0.55,0 0.325,-0.43621 -0.5,-0.96937 z m -27.27083,-1.60417 c -0.33229,-0.33229 -1.1948,-0.36781 -1.91667,-0.0789 -0.79773,0.31923 -0.56078,0.55619 0.60417,0.60417 1.05416,0.0434 1.64479,-0.19293 1.3125,-0.52522 z m 12.52083,-6.05811 c -0.6875,-0.27741 -1.8125,-0.27741 -2.5,0 -0.6875,0.27741 -0.125,0.50439 1.25,0.50439 1.375,0 1.9375,-0.22698 1.25,-0.50439 z m 11,-7 c -0.6875,-0.27741 -1.8125,-0.27741 -2.5,0 -0.6875,0.27741 -0.125,0.50439 1.25,0.50439 1.375,0 1.9375,-0.22698 1.25,-0.50439 z m 24.47917,0.0581 c -0.3323,-0.33229 -1.1948,-0.36782 -1.91667,-0.0789 -0.79773,0.31923 -0.56078,0.55618 0.60417,0.60417 1.05416,0.0434 1.64479,-0.19293 1.3125,-0.52522 z m -8.06689,-66.64583 c -0.27741,-0.6875 -0.50438,-0.125 -0.50438,1.25 0,1.375 0.22697,1.9375 0.50438,1.25 0.27741,-0.6875 0.27741,-1.8125 0,-2.5 z"
       id="path3421"
       inkscape:connector-curvature="0" />
    <path
       style="fill:#73b63e;fill-opacity:1;stroke:none;stroke-opacity:1"
       d="m 340.12583,550.43722 c -0.22844,-0.0449 -0.42731,-0.13849 -0.44194,-0.20794 -0.037,-0.17538 0.75334,-0.42624 1.36979,-0.43482 0.56434,-0.008 1.08498,0.27526 0.87645,0.4766 -0.17014,0.16426 -1.28965,0.26736 -1.8043,0.16616 z"
       id="path3569"
       inkscape:connector-curvature="0" />
    <path
       style="fill:#73b63e;fill-opacity:1;stroke:none;stroke-opacity:1"
       d="m 351.84653,544.23681 c -0.30374,-0.19211 0.39669,-0.38412 1.4012,-0.38412 0.88995,0 1.44264,0.16307 1.30539,0.38514 -0.0954,0.15435 -2.46235,0.15345 -2.70659,-10e-4 z"
       id="path3571"
       inkscape:connector-curvature="0" />
    <path
       style="fill:#73b63e;fill-opacity:1;stroke:none;stroke-opacity:1"
       d="m 363.04863,537.32593 c -0.36131,-0.0944 -0.25289,-0.27103 0.25254,-0.4114 0.602,-0.16718 1.22891,-0.16718 1.8309,0 0.57689,0.16021 0.60585,0.31413 0.0789,0.41952 -0.43686,0.0874 -1.81677,0.0822 -2.16236,-0.008 z"
       id="path3573"
       inkscape:connector-curvature="0" />
    <path
       style="fill:#73b63e;fill-opacity:1;stroke:none;stroke-opacity:1"
       d="m 368.82102,552.32713 c -1.73656,-0.62554 -3.13315,-1.82757 -1.85805,-1.59921 1.02581,0.18371 2.93576,1.26001 2.93576,1.65436 0,0.24022 -0.30041,0.22485 -1.07771,-0.0552 z"
       id="path3575"
       inkscape:connector-curvature="0" />
    <path
       style="fill:#73b63e;fill-opacity:1;stroke:none;stroke-opacity:1"
       d="m 377.50254,561.1418 c -2.69793,-0.72476 -3.8036,-1.63425 -1.51811,-1.24876 1.45613,0.24561 3.29284,0.90694 3.6227,1.30439 0.1553,0.18713 0.10739,0.20594 -0.50686,0.199 -0.37311,-0.004 -1.09209,-0.1188 -1.59773,-0.25463 z"
       id="path3577"
       inkscape:connector-curvature="0" />
    <path
       style="fill:#73b63e;fill-opacity:1;stroke:none;stroke-opacity:1"
       d="m 388.42872,537.45561 c 0.0868,-0.035 0.22886,-0.035 0.31567,0 0.0868,0.035 0.0158,0.0637 -0.15784,0.0637 -0.17362,0 -0.24464,-0.0287 -0.15783,-0.0637 z"
       id="path3579"
       inkscape:connector-curvature="0" />
    <path
       style="fill:#73b63e;fill-opacity:1;stroke:none;stroke-opacity:1"
       d=""
       id="path3581"
       inkscape:connector-curvature="0" />
    <path
       style="fill:#73b63e;fill-opacity:1;stroke:none;stroke-opacity:1"
       d=""
       id="path3583"
       inkscape:connector-curvature="0" />
    <path
       style="fill:#73b63e;fill-opacity:1;stroke:none;stroke-opacity:1"
       d=""
       id="path3585"
       inkscape:connector-curvature="0" />
    <path
       style="fill:#73b63e;fill-opacity:1;stroke:none;stroke-opacity:1"
       d="m 388.33401,537.43933 c -0.80433,-0.0599 -0.87059,-0.21487 -0.20114,-0.47053 0.60595,-0.23142 1.49824,-0.20328 1.75692,0.0554 0.30079,0.30079 -0.43925,0.49826 -1.55578,0.41513 z"
       id="path3587"
       inkscape:connector-curvature="0" />
    <path
       style="fill:#73b63e;fill-opacity:1;stroke:none;stroke-opacity:1"
       d="m 389.78611,537.03416 c -0.0429,-0.0695 -0.0179,-0.12627 0.0557,-0.12627 0.0736,0 0.13372,0.0568 0.13372,0.12627 0,0.0694 -0.0251,0.12627 -0.0557,0.12627 -0.0306,0 -0.0908,-0.0568 -0.13372,-0.12627 z"
       id="path3589"
       inkscape:connector-curvature="0" />
    <path
       style="fill:#73b63e;fill-opacity:1;stroke:none;stroke-opacity:1"
       d="m 388.71282,536.78162 c 0,-0.16423 0.46671,-0.16423 0.56821,0 0.0443,0.0716 -0.0618,0.12627 -0.24508,0.12627 -0.17772,0 -0.32313,-0.0568 -0.32313,-0.12627 z"
       id="path3591"
       inkscape:connector-curvature="0" />
    <path
       style="fill:#73b63e;fill-opacity:1;stroke:none;stroke-opacity:1"
       d="m 376.78039,584.38018 c -1.37875,-0.0933 -2.39227,-0.28963 -2.67018,-0.51718 -0.38487,-0.31514 0.50107,-1.29997 1.51922,-1.68881 0.51851,-0.19802 0.67929,-0.20682 1.28816,-0.0706 0.78169,0.17493 1.06236,0.0629 1.06236,-0.42409 0,-0.49863 0.76776,-1.50503 2.12627,-2.78718 3.19,-3.01071 3.66305,-3.60166 4.1441,-5.17704 0.18327,-0.60021 0.23007,-1.16424 0.22525,-2.71478 -0.005,-1.69647 -0.0441,-2.0665 -0.29163,-2.77792 -0.99494,-2.85982 -3.26833,-4.48445 -10.2446,-7.32108 -5.95919,-2.42307 -8.17181,-3.90315 -13.63706,-9.12213 -3.53286,-3.37367 -4.22077,-3.97809 -5.51762,-4.84785 -1.54416,-1.03563 -2.16489,-1.22459 -4.21942,-1.28445 -3.11664,-0.0908 -4.0276,0.36116 -5.46877,2.71339 -0.99385,1.6221 -2.16543,2.594 -3.69735,3.06716 -1.4979,0.46266 -2.54369,0.28999 -3.36608,-0.55576 -0.28728,-0.29544 -0.66438,-0.6133 -0.838,-0.70637 -0.4939,-0.26475 -2.6472,-0.30159 -4.35104,-0.0744 -2.71202,0.36157 -4.34281,0.24008 -4.99287,-0.37196 -0.73718,-0.69407 -2.3327,-1.02002 -5.80838,-1.1866 -3.69109,-0.1769 -5.07808,-0.56057 -7.04984,-1.9501 -1.86167,-1.31196 -3.29452,-1.81336 -4.50378,-1.57602 -1.6491,0.32366 -2.74116,-0.008 -3.85733,-1.1724 -1.52714,-1.59278 -2.39043,-4.32307 -2.39224,-7.56585 -10e-4,-2.46755 -0.38076,-3.55887 -1.48057,-4.25894 -0.33199,-0.21132 -1.20024,-0.64734 -1.92944,-0.96893 -4.07325,-1.79639 -5.68127,-3.57598 -4.63605,-5.13071 0.35646,-0.53024 1.3312,-1.1824 2.17192,-1.45315 0.9995,-0.32189 1.69415,-0.77584 2.76401,-1.80626 1.33451,-1.28532 2.29422,-2.48887 4.00459,-5.02206 2.39143,-3.54186 3.83314,-4.75805 6.49153,-5.47608 2.17737,-0.5881 3.80174,-1.56193 5.55584,-3.33076 2.11696,-2.13474 3.89429,-5.18817 5.25103,-9.02121 0.21193,-0.59871 0.95451,-2.96367 1.65019,-5.25545 1.80625,-5.9503 2.65954,-8.12002 3.6049,-9.16642 0.80959,-0.89612 1.58183,-1.09585 3.37534,-0.87298 2.05041,0.25479 2.97694,0.81141 3.14978,1.89226 0.11867,0.74217 0.98072,1.56087 2.35997,2.2413 0.5952,0.29363 1.47258,0.86184 1.94972,1.26269 0.82764,0.69529 1.06776,0.96316 2.52393,2.81557 0.80227,1.02059 1.95896,1.82605 2.79302,1.94494 0.93135,0.13276 2.46565,0.95178 4.15178,2.21625 1.64772,1.23568 2.91713,1.95042 4.29314,2.41727 0.72891,0.2473 1.13947,0.29988 2.34154,0.29988 2.33885,0 2.49289,-0.20562 2.64655,-3.53277 0.14288,-3.09358 0.49017,-4.33539 1.52704,-5.46027 0.76645,-0.8315 1.21819,-1.90786 1.42791,-3.4023 0.31286,-2.2294 1.36183,-4.21067 4.0669,-7.68144 0.94223,-1.20895 1.78448,-2.44047 2.09724,-3.06652 0.67702,-1.35525 0.75165,-2.34809 0.36493,-4.85481 -0.33163,-2.14962 -0.33484,-2.69847 -0.0188,-3.21682 0.32501,-0.53304 0.903,-0.81293 2.93112,-1.41939 3.82013,-1.14231 7.08355,-1.51342 8.65314,-0.98402 1.91802,0.64692 3.81391,2.41306 4.48432,4.17743 0.13268,0.34919 0.29475,1.10586 0.36016,1.68148 0.16766,1.47557 0.63714,2.84727 1.37283,4.01107 0.87571,1.38532 1.06956,2.02387 0.96493,3.17853 -0.13937,1.53798 0.25974,2.69939 1.9186,5.58306 1.00434,1.74591 1.59836,3.09496 1.73409,3.93823 0.0503,0.31251 0.20633,0.79549 0.34675,1.07329 1.01145,2.00101 4.59747,5.15469 7.52229,6.61538 1.26292,0.63071 1.99574,0.85714 3.30383,1.0208 2.53027,0.31659 3.898,0.78607 4.41817,1.51657 0.15493,0.21758 0.32056,0.71733 0.38214,1.15298 0.17291,1.22325 0.67508,1.59488 2.36301,1.74873 1.36565,0.12447 1.66046,0.35173 1.42097,1.09535 -0.23312,0.7238 -1.08792,1.95522 -2.64715,3.81345 -2.96546,3.53413 -3.81549,4.91922 -3.89627,6.34883 -0.0734,1.29981 0.35141,1.92095 2.31541,3.38513 1.3409,0.99966 1.34725,1.09823 0.0947,1.47088 -0.3646,0.10847 -0.66291,0.24393 -0.66291,0.30102 0,0.23613 0.67973,0.33675 3.4287,0.50755 3.05471,0.1898 3.70651,0.51114 4.65984,2.29731 0.71008,1.33043 2.22478,2.90754 3.37432,3.51336 1.56594,0.82526 2.72351,2.43779 3.63762,5.06728 0.93454,2.6883 1.99834,4.34805 3.53096,5.50909 0.99472,0.75355 1.90491,1.13916 2.94562,1.24793 0.5613,0.0587 0.98618,-8.8e-4 1.97498,-0.27684 0.69291,-0.19337 1.7144,-0.38479 2.26998,-0.42536 1.13103,-0.0826 1.11803,-0.0647 0.80464,-1.10957 -0.13261,-0.44215 -0.12896,-0.58717 0.0218,-0.86896 0.4227,-0.78982 1.68919,-1.36439 3.49407,-1.58516 0.84628,-0.10352 1.39769,-0.089 2.63352,0.0696 1.77423,0.22758 2.70552,0.25549 2.70552,0.0811 0,-0.0657 -0.4061,-0.33278 -0.90244,-0.5936 -0.49632,-0.26081 -0.84577,-0.49309 -0.77654,-0.51617 0.0692,-0.0231 0.88728,0.0986 1.81787,0.27036 1.81249,0.33455 4.92708,0.64637 7.68979,0.76987 3.00548,0.13436 4.41082,0.49652 5.40892,1.39389 0.78854,0.70898 1.16319,1.55785 1.24784,2.82739 0.0615,0.92264 0.0492,0.97677 -0.36077,1.58444 -0.35159,0.52113 -0.60693,0.7209 -1.48697,1.16335 -1.63534,0.82218 -2.41861,1.70037 -3.26209,3.65737 -0.60647,1.40712 -1.38291,2.52022 -2.46221,3.52986 -2.00719,1.87764 -4.71211,3.19248 -7.86042,3.82093 -3.53123,0.70487 -6.51248,0.37879 -9.63887,-1.05429 -0.67216,-0.30812 -1.59105,-0.65024 -2.04196,-0.76028 -1.38008,-0.33679 -3.45686,-0.37454 -6.12311,-0.1113 -1.31951,0.13028 -3.30825,0.23687 -4.41942,0.23687 -1.90931,0 -2.05855,-0.0179 -2.71641,-0.32655 -0.38286,-0.1796 -1.23518,-0.7977 -1.89404,-1.37355 -2.03278,-1.77669 -3.15115,-2.11889 -5.63241,-1.72341 -1.74562,0.27822 -3.12412,0.2634 -3.79411,-0.0408 -0.2894,-0.1314 -0.9504,-0.63225 -1.46888,-1.11299 -1.63531,-1.51628 -2.70244,-1.96643 -5.31729,-2.243 -2.38787,-0.25256 -3.45362,-0.61167 -5.23465,-1.76381 -1.33401,-0.86296 -2.05916,-1.11569 -3.23663,-1.12803 -0.84705,-0.009 -1.12744,0.0444 -1.73654,0.32983 -1.03117,0.48324 -1.9862,1.44807 -3.09605,3.12781 -1.09806,1.6619 -2.57398,3.21966 -3.20557,3.38332 -0.47949,0.12425 -1.44155,0.008 -1.6488,-0.19928 -0.24928,-0.24928 0.10263,-1.02853 1.03685,-2.29597 0.4863,-0.65976 1.05482,-1.48367 1.26338,-1.83091 1.59761,-2.65999 2.00292,-7.33806 0.81185,-9.37046 -0.46136,-0.78726 -1.15489,-1.08473 -2.51251,-1.0777 -3.23069,0.0167 -7.77317,2.22854 -9.75105,4.74793 -1.90829,2.43075 -2.69693,2.91233 -5.09335,3.11027 -1.47343,0.1217 -2.17391,0.31875 -2.88501,0.81154 -1.09615,0.75963 -1.39563,2.21002 -0.74829,3.624 0.40084,0.87554 1.70236,2.27422 3.06147,3.29 2.40509,1.79753 7.06025,4.18803 12.44492,6.39068 9.72169,3.97674 11.31497,4.65329 12.91424,5.4837 0.53999,0.28039 1.09925,0.65898 1.24281,0.8413 l 0.261,0.33149 -0.51676,0.44539 c -0.28422,0.24496 -0.51677,0.49241 -0.51677,0.5499 0,0.0575 0.24149,0.0715 0.53665,0.0311 1.89482,-0.25913 2.18493,-0.24998 2.93303,0.0925 1.40179,0.64175 3.20975,2.74951 4.88892,5.69959 1.64965,2.89821 3.43035,6.80325 6.24412,13.69323 1.00527,2.46157 1.85604,4.52133 1.8906,4.57725 0.0784,0.12681 -26.2715,0.0992 -28.17321,-0.0295 z m 3.06303,-23.07185 c 0.0726,-0.22049 -1.56878,-0.97763 -2.79912,-1.29119 -1.00876,-0.25709 -2.47361,-0.34464 -2.47361,-0.14785 0,0.40713 2.07014,1.2683 3.78807,1.57582 0.5823,0.10423 1.43106,0.026 1.48466,-0.13678 z m -9.81842,-8.93476 c 0,-0.40109 -1.78076,-1.46321 -2.86213,-1.7071 -1.43686,-0.32407 -0.77742,0.69981 0.95173,1.47771 1.14289,0.51416 1.9104,0.60631 1.9104,0.22939 z m -28.1544,-1.95681 c 0.57801,-0.30935 -0.2951,-0.84231 -1.15471,-0.70486 -0.28429,0.0455 -0.69222,0.17332 -0.9065,0.28413 -0.36983,0.19124 -0.37754,0.21028 -0.15202,0.37519 0.28114,0.20557 1.85374,0.23792 2.21323,0.0455 z m 12.59174,-6.01231 c 0.15625,-0.0419 0.2841,-0.14918 0.2841,-0.23846 0,-0.41793 -1.9029,-0.59753 -2.71884,-0.25661 -0.51293,0.21432 -0.53899,0.28962 -0.15378,0.44445 0.32301,0.12984 2.15895,0.16574 2.58852,0.0506 z m 11.1891,-7.11529 c 0.35441,-0.35981 -0.94098,-0.72334 -2.00759,-0.56339 -0.31503,0.0472 -0.69857,0.18798 -0.85232,0.31276 l -0.27954,0.22686 0.37881,0.0848 c 0.20834,0.0466 0.43562,0.10752 0.50507,0.13526 0.26217,0.10472 2.11817,-0.0568 2.25557,-0.19633 z m 24.2061,0.11937 c 0.13433,-0.0719 0.24424,-0.18217 0.24424,-0.24506 0,-0.0629 -0.15626,-0.0328 -0.34724,0.0668 -0.36784,0.19189 -1.44123,0.23087 -1.85925,0.0675 -0.20971,-0.0819 -0.15957,-0.12909 0.31567,-0.29682 0.39102,-0.13801 0.47558,-0.20248 0.27462,-0.20938 -0.15971,-0.005 -0.46884,0.0823 -0.68696,0.19511 -0.37613,0.19451 -0.38433,0.21404 -0.159,0.37881 0.28297,0.20691 1.85472,0.2374 2.21792,0.043 z m -0.0191,-0.55351 c -0.0291,-0.0291 -0.22322,-0.0932 -0.43142,-0.14257 -0.25914,-0.0614 -0.33872,-0.0486 -0.25228,0.0406 0.0695,0.0717 0.23991,0.15379 0.37881,0.18247 0.25694,0.053 0.40054,0.0151 0.30489,-0.0805 z m -7.92548,-63.99711 c 0.33316,-0.61528 0.10988,-2.87263 -0.28414,-2.87263 -0.0597,0 -0.1507,0.15626 -0.20222,0.34724 -0.11771,0.43634 -0.10729,2.468 0.0137,2.66371 0.13794,0.22319 0.3031,0.17486 0.47269,-0.13832 z"
       id="path3593"
       inkscape:connector-curvature="0" />
    <path
       style="fill:#73b63e;fill-opacity:1;stroke:none;stroke-opacity:1"
       d=""
       id="path3595"
       inkscape:connector-curvature="0" />
    <path
       style="fill:#73b63e;fill-opacity:1;stroke:none;stroke-opacity:1"
       d=""
       id="path3597"
       inkscape:connector-curvature="0" />
    <rect
       style="fill:#73b63e;fill-opacity:1;stroke:none;stroke-opacity:1"
       id="rect3603"
       width="14.268405"
       height="9.7227182"
       x="327.54196"
       y="526.7041" />
    <rect
       style="fill:#73b63e;fill-opacity:1;stroke:none;stroke-opacity:1"
       id="rect3605"
       width="4.9244938"
       height="2.9041886"
       x="350.77548"
       y="541.85638" />
    <rect
       style="fill:#73b63e;fill-opacity:1;stroke:none;stroke-opacity:1"
       id="rect3607"
       width="5.0507627"
       height="2.6516504"
       x="360.87698"
       y="535.03784" />
    <rect
       style="fill:#73b63e;fill-opacity:1;stroke:none;stroke-opacity:1"
       id="rect3615"
       width="2.7779195"
       height="1.5152289"
       x="339.41125"
       y="549.30621" />
    <rect
       style="fill:#73b63e;fill-opacity:1;stroke:none;stroke-opacity:1"
       id="rect3619"
       width="5.177032"
       height="2.9041886"
       x="365.17014"
       y="550.69519" />
    <rect
       style="fill:#73b63e;fill-opacity:1;stroke:none;stroke-opacity:1"
       id="rect3621"
       width="1.0101526"
       height="1.2626907"
       x="365.92776"
       y="549.55878" />
    <rect
       style="fill:#73b63e;fill-opacity:1;stroke:none;stroke-opacity:1"
       id="rect3625"
       width="4.5456862"
       height="2.5253813"
       x="376.28183"
       y="559.40778" />
    <rect
       style="fill:#73b63e;fill-opacity:1;stroke:none;stroke-opacity:1"
       id="rect3629"
       width="1.3889598"
       height="1.1364216"
       x="374.64032"
       y="559.40778" />
    <rect
       style="fill:#73b63e;fill-opacity:1;stroke:none;stroke-opacity:1"
       id="rect3631"
       width="5.3033009"
       height="1.1364216"
       x="386.50961"
       y="536.67932" />
    <rect
       style="fill:#73b63e;fill-opacity:1;stroke:none;stroke-opacity:1"
       id="rect3633"
       width="1.6414979"
       height="4.4194174"
       x="380.82751"
       y="469.883" />
  </g>
</svg>
