<?xml version="1.0" encoding="UTF-8" standalone="no"?>
<!-- Generator: Adobe Illustrator 16.0.0, SVG Export Plug-In . SVG Version: 6.00 Build 0)  -->

<svg
   xmlns:dc="http://purl.org/dc/elements/1.1/"
   xmlns:cc="http://creativecommons.org/ns#"
   xmlns:rdf="http://www.w3.org/1999/02/22-rdf-syntax-ns#"
   xmlns:svg="http://www.w3.org/2000/svg"
   xmlns="http://www.w3.org/2000/svg"
   xmlns:sodipodi="http://sodipodi.sourceforge.net/DTD/sodipodi-0.dtd"
   xmlns:inkscape="http://www.inkscape.org/namespaces/inkscape"
   version="1.1"
   id="Layer_1"
   x="0px"
   y="0px"
   width="115.333px"
   height="114px"
   viewBox="0 0 115.333 114"
   enable-background="new 0 0 115.333 114"
   xml:space="preserve"
   inkscape:version="0.91 r13725"
   sodipodi:docname="prometheus_logo.svg"><metadata
     id="metadata3346"><rdf:RDF><cc:Work
         rdf:about=""><dc:format>image/svg+xml</dc:format><dc:type
           rdf:resource="http://purl.org/dc/dcmitype/StillImage" /><dc:title></dc:title></cc:Work></rdf:RDF></metadata><defs
     id="defs3344" /><sodipodi:namedview
     pagecolor="#ffffff"
     bordercolor="#666666"
     borderopacity="1"
     objecttolerance="10"
     gridtolerance="10"
     guidetolerance="10"
     inkscape:pageopacity="0"
     inkscape:pageshadow="2"
     inkscape:window-width="1916"
     inkscape:window-height="1037"
     id="namedview3342"
     showgrid="false"
     inkscape:zoom="10.569386"
     inkscape:cx="56.72988"
     inkscape:cy="57"
     inkscape:window-x="0"
     inkscape:window-y="20"
     inkscape:window-maximized="0"
     inkscape:current-layer="Layer_1" /><g
     id="Layer_2" /><g
     id="g3338"><path
       fill="#e6522c"
       d="M56.667,0.667C25.372,0.667,0,26.036,0,57.332c0,31.295,25.372,56.666,56.667,56.666   s56.666-25.371,56.666-56.666C113.333,26.036,87.961,0.667,56.667,0.667z M56.667,106.722c-8.904,0-16.123-5.948-16.123-13.283   H72.79C72.79,100.773,65.571,106.722,56.667,106.722z M83.297,89.04H30.034v-9.658h53.264V89.04z M83.106,74.411h-52.92   c-0.176-0.203-0.356-0.403-0.526-0.609c-5.452-6.62-6.736-10.076-7.983-13.598c-0.021-0.116,6.611,1.355,11.314,2.413   c0,0,2.42,0.56,5.958,1.205c-3.397-3.982-5.414-9.044-5.414-14.218c0-11.359,8.712-21.285,5.569-29.308   c3.059,0.249,6.331,6.456,6.552,16.161c3.252-4.494,4.613-12.701,4.613-17.733c0-5.21,3.433-11.262,6.867-11.469   c-3.061,5.045,0.793,9.37,4.219,20.099c1.285,4.03,1.121,10.812,2.113,15.113C63.797,33.534,65.333,20.5,71,16   c-2.5,5.667,0.37,12.758,2.333,16.167c3.167,5.5,5.087,9.667,5.087,17.548c0,5.284-1.951,10.259-5.242,14.148   c3.742-0.702,6.326-1.335,6.326-1.335l12.152-2.371C91.657,60.156,89.891,67.418,83.106,74.411z"
       id="path3340" /></g><path
     style="fill:#ffff00;fill-opacity:1;stroke:none;stroke-opacity:1"
     d="m 28.946293,72.808803 c -2.544393,-3.207509 -4.115679,-5.584384 -5.329311,-8.06162 -0.833826,-1.701985 -1.87981,-4.323019 -1.769301,-4.433528 0.06433,-0.06433 2.881922,0.522509 8.121636,1.69156 4.527034,1.010045 8.857285,1.890551 8.931679,1.816157 0.03054,-0.03054 -0.301924,-0.527154 -0.738808,-1.10359 -1.639631,-2.16337 -2.837397,-4.503203 -3.63173,-7.094577 -0.705863,-2.30275 -0.871256,-3.474479 -0.865207,-6.129543 0.01,-4.369529 0.585646,-6.683725 4.060825,-16.323944 1.735781,-4.815089 2.340752,-7.909357 2.026095,-10.362929 -0.08703,-0.678616 -0.243818,-1.482257 -0.348421,-1.785869 -0.104603,-0.30361 -0.166783,-0.575425 -0.138177,-0.604031 0.164233,-0.164233 1.12569,0.36668 1.80798,0.99836 0.912155,0.844495 1.634405,1.930234 2.315856,3.481365 1.189764,2.708166 1.795833,5.635811 2.176793,10.515096 0.04456,0.570772 0.131162,1.006781 0.192441,0.968909 0.223166,-0.137924 1.244807,-2.041328 1.83116,-3.411605 1.505641,-3.518609 2.715745,-9.607358 2.718332,-13.677533 0.0034,-5.348513 2.945473,-10.9859639 6.18759,-11.8563353 0.275969,-0.074086 0.501761,-0.1207181 0.501761,-0.1036272 0,0.017091 -0.145096,0.3318428 -0.322434,0.6994488 -0.632292,1.3106763 -0.845987,2.7537377 -0.624,4.2138107 0.244487,1.608075 0.752536,3.182692 2.2881,7.09161 1.749811,4.454304 2.827695,7.458172 3.189953,8.889822 0.376306,1.487166 0.621125,3.297821 1.021198,7.552663 0.349308,3.714966 0.677991,6.201905 0.864259,6.539335 0.05577,0.101035 0.144041,-0.651605 0.19615,-1.672536 0.479285,-9.390363 2.242974,-17.289988 4.788794,-21.449178 0.618892,-1.011106 2.056448,-2.819029 2.241527,-2.819029 0.06249,0 -7.6e-5,0.375482 -0.139027,0.834404 -0.849044,2.804203 -0.623982,6.360638 0.645757,10.204328 0.465224,1.408302 1.037831,2.605619 3.743417,7.827465 1.882552,3.633373 2.718204,6.187299 3.189704,9.748398 0.273614,2.066534 0.314588,6.205182 0.07636,7.71287 -0.216106,1.367682 -0.730394,3.350533 -1.179942,4.549295 -0.765846,2.042205 -2.473998,5.035212 -3.492822,6.120084 -0.189334,0.201608 -0.307306,0.403499 -0.262161,0.448646 0.04515,0.04514 1.275087,-0.168601 2.733203,-0.474993 5.194315,-1.091477 15.464978,-3.092085 15.53167,-3.025393 0.14174,0.14174 -0.827719,2.631185 -1.775174,4.558417 -1.537411,3.127266 -3.082383,5.441038 -5.472319,8.195422 l -1.073912,1.237677 -26.512706,0 -26.512705,0 -1.194082,-1.505282 z"
     id="path4150"
     inkscape:connector-curvature="0" /><path
     style="fill:#ffff00;fill-opacity:1;stroke:none;stroke-opacity:1"
     d="m 30.10312,84.215493 0,-4.816901 26.559859,0 26.559859,0 0,4.816901 0,4.816901 -26.559859,0 -26.559859,0 0,-4.816901 z"
     id="path4152"
     inkscape:connector-curvature="0" /><path
     style="fill:#ffff00;fill-opacity:1;stroke:none;stroke-opacity:1"
     d="m 54.571751,106.55999 c -3.948128,-0.45525 -7.428574,-2.02487 -10.057867,-4.53595 -2.253571,-2.152254 -3.576811,-4.740656 -3.819968,-7.472279 l -0.09826,-1.103874 16.088978,0 16.088978,0 -0.06915,0.702465 c -0.302734,3.075435 -1.527394,5.57919 -3.819787,7.809358 -2.286573,2.22451 -5.169522,3.68586 -8.573066,4.34564 -1.542896,0.29909 -4.295351,0.42119 -5.739858,0.25464 z"
     id="path4154"
     inkscape:connector-curvature="0" /></svg>